PathFileType	4	(X/Y/Z)	C:\Users\Basilio\Documents\Thesis Gigler\squatting_fais\c3dfiles\044\SLS_back_pre1\markers_experimental.trc
DataRate	CameraRate	NumFrames	NumMarkers	Units	OrigDataRate	OrigDataStartFrame	OrigNumFrames
200.000000	200.000000	4	68	mm	200.000000	1512	1728
Frame#	Time	FHD			LBHD			RBHD			C7			T10			CLAV			LRAD			LRFIN			RSHO			RUPA1			RMUPA			RDUPA			RLEP			RMEP			RUL			LASI			RASI			USACR			LSACR			RSACR			LTHI1			LTHI2			LTHI3			LTHI4			LLFC			LMFC			LTIB1			LTIB2			LTIB3			LTIB4			LLMAL			LMMAL			LHEE			LMT1			LMT2			LMT5			RTHI			RTHI2			RTHI3			RTHI4			RLFC			RMFC			RTIB1			RTIB2			RTIB3			RTIB4			RLMAL			RMMAL			RHEE			RMT1			RMT2			RMT5			RUFIN			LSHO			LUUPA			LMUPA			LDUPA			LLEP			LMEP			LUL			*60			*61			*62			*63			*64			*65			*66			*67			
		X1	Y1	Z1	X2	Y2	Z2	X3	Y3	Z3	X4	Y4	Z4	X5	Y5	Z5	X6	Y6	Z6	X7	Y7	Z7	X8	Y8	Z8	X9	Y9	Z9	X10	Y10	Z10	X11	Y11	Z11	X12	Y12	Z12	X13	Y13	Z13	X14	Y14	Z14	X15	Y15	Z15	X16	Y16	Z16	X17	Y17	Z17	X18	Y18	Z18	X19	Y19	Z19	X20	Y20	Z20	X21	Y21	Z21	X22	Y22	Z22	X23	Y23	Z23	X24	Y24	Z24	X25	Y25	Z25	X26	Y26	Z26	X27	Y27	Z27	X28	Y28	Z28	X29	Y29	Z29	X30	Y30	Z30	X31	Y31	Z31	X32	Y32	Z32	X33	Y33	Z33	X34	Y34	Z34	X35	Y35	Z35	X36	Y36	Z36	X37	Y37	Z37	X38	Y38	Z38	X39	Y39	Z39	X40	Y40	Z40	X41	Y41	Z41	X42	Y42	Z42	X43	Y43	Z43	X44	Y44	Z44	X45	Y45	Z45	X46	Y46	Z46	X47	Y47	Z47	X48	Y48	Z48	X49	Y49	Z49	X50	Y50	Z50	X51	Y51	Z51	X52	Y52	Z52	X53	Y53	Z53	X54	Y54	Z54	X55	Y55	Z55	X56	Y56	Z56	X57	Y57	Z57	X58	Y58	Z58	X59	Y59	Z59	X60	Y60	Z60	X61	Y61	Z61	X62	Y62	Z62	X63	Y63	Z63	X64	Y64	Z64	X65	Y65	Z65	X66	Y66	Z66	X67	Y67	Z67	X68	Y68	Z68	

1513	7.56	-181.2216949462891	1805.58203125	-924.249450683594	-319.0945129394532	1758.642333984375	-987.817077636719	-344.3806152343751	1739.638305664063	-823.6903076171877	-360.8764038085938	1567.009643554688	-910.962829589844	-352.0928955078126	1262.334106445313	-899.6599731445315	-220.0149841308594	1536.224853515625	-917.9956665039065	253.2623138427735	1501.748779296875	-994.478210449219	281.1615905761719	1568.16162109375	-948.7941894531252	-262.2535705566407	1567.807373046875	-750.2246704101564	-110.9305419921875	1540.878784179688	-647.8529663085939	-79.98643493652345	1555.991577148438	-685.9548339843751	-41.37624740600587	1542.515747070313	-642.0991821289064	20.80262565612793	1546.9521484375	-650.9907226562501	20.27113151550293	1463.548461914063	-659.2412719726564	263.9314270019532	1561.071166992188	-797.9011840820315	-184.2149658203125	1070.613647460938	-1019.228942871094	-158.2247772216797	1056.292724609375	-803.3167114257815	-339.9024353027344	1117.040405273438	-890.6838989257815	-347.0652465820313	1083.892944335938	-916.9719238281252	-338.2976684570313	1086.358642578125	-859.942810058594	-291.1940917968751	836.0376586914065	-1084.403686523438	-260.6018981933594	756.7322387695314	-1087.516723632813	-212.371078491211	757.2863159179689	-1084.79052734375	-289.4436340332032	705.2782592773439	-1073.737426757813	-277.5838012695313	544.3937988281251	-1062.994262695313	-263.4213867187501	536.1346435546876	-941.4676513671877	-256.0271301269532	366.3298339843751	-997.790954589844	-286.0984497070313	322.0935058593751	-1069.300659179688	-254.2554016113282	319.3788146972657	-1033.964477539063	-270.6053466796876	241.1840057373047	-1006.320434570313	-325.8343200683594	125.1739959716797	-1054.6943359375	-305.6339416503907	130.540771484375	-970.802673339844	-387.9364624023439	99.18507385253909	-1007.525451660156	-180.6267395019532	58.77354431152345	-985.763366699219	-179.5608367919922	59.75511932373048	-1032.734252929688	-216.8806762695313	47.66003036499024	-1078.200439453125	-264.7483520507813	791.955749511719	-714.9799804687501	-226.203353881836	736.1213378906251	-713.9938354492189	-194.2032775878907	736.4917602539064	-722.1444091796876	-255.4706268310547	657.2145385742189	-727.8771972656251	-266.8114318847657	541.9964599609376	-732.3474121093751	-272.0245666503907	531.4559326171876	-856.397399902344	-229.2530975341797	411.1483459472657	-753.0551757812501	-303.2162780761719	344.5050354003907	-704.9075317382814	-261.4173278808594	335.4085998535157	-721.1758422851564	-253.5792846679688	283.4018554687501	-744.9458618164064	-326.6196899414063	132.1463317871094	-726.4186401367189	-302.2453613281251	137.1048889160157	-807.8725585937502	-383.0636291503907	101.1957244873047	-776.0306396484377	-174.5921630859375	61.7910499572754	-786.9158325195315	-171.6794891357422	56.44923019409181	-750.1802368164064	-213.8360137939454	41.49961090087891	-700.2122802734376	260.9467163085938	1537.077270507813	-915.6456298828127	-269.2282714843751	1582.278686523438	-1067.8662109375	-111.7102355957032	1532.783569335938	-1173.48876953125	-79.39006805419923	1550.978393554688	-1138.873046875	-41.83238220214844	1528.287719726563	-1182.62939453125	17.31064605712891	1527.347045898438	-1175.801879882813	5.371902465820313	1450.620239257813	-1151.791870117188	272.6399230957032	1541.314575195313	-1049.673950195313	nan	nan	nan	nan	nan	nan	nan	nan	nan	nan	nan	nan	nan	nan	nan	nan	nan	nan	nan	nan	nan	nan	nan	nan	
1514	7.565	-181.9309387207032	1805.437377929688	-922.8447875976565	-319.2965087890626	1758.596557617188	-986.741882324219	-344.4045715332032	1739.560668945313	-822.639343261719	-361.0514831542969	1566.90185546875	-909.9780273437502	-352.1603088378907	1262.37255859375	-898.8154907226565	-219.9905853271485	1536.3115234375	-916.978210449219	253.412094116211	1501.43798828125	-993.2388305664065	281.1929321289063	1568.341918945313	-947.8162231445315	-262.4189453125001	1567.848510742188	-749.3252563476564	-111.2145233154297	1541.074951171875	-646.7939453125001	-80.45835876464845	1556.069091796875	-684.9893188476564	-41.58430480957032	1542.547973632813	-641.1573486328126	20.46180725097657	1546.923950195313	-649.7686767578126	19.9062728881836	1463.511596679688	-657.9671020507814	263.6236877441407	1561.079711914063	-796.7231445312502	-184.361557006836	1070.62646484375	-1018.256469726563	-158.0757141113282	1056.327758789063	-802.463562011719	-340.0874328613282	1117.273803710938	-889.622497558594	-347.0511474609376	1084.076904296875	-916.0811767578127	-338.2046508789063	1086.7841796875	-859.1152954101565	-291.3108215332032	836.1311035156252	-1083.68701171875	-260.7646789550782	756.9393920898439	-1086.918212890625	-212.5148620605469	757.4445800781251	-1084.093627929688	-289.4889526367188	705.4113159179689	-1073.268310546875	-277.7323608398438	544.5227050781251	-1062.729248046875	-263.1384277343751	535.9887084960939	-941.1848144531252	-256.0008850097657	366.3490600585938	-997.8355712890627	-286.1513366699219	322.2505798339844	-1069.336303710938	-254.3276977539063	319.3841857910157	-1034.091430664063	-270.4036865234376	241.168441772461	-1006.486755371094	-325.9857177734376	125.2133560180664	-1054.886840820313	-305.5324096679688	130.7102355957032	-970.9926757812502	-387.9347229003907	99.26612854003909	-1007.710998535156	-180.890380859375	59.1634864807129	-986.237976074219	-179.5832061767578	59.76444625854494	-1032.828491210938	-216.9536590576172	47.60725021362305	-1078.281982421875	-264.8339843750001	792.0180664062502	-714.2716064453126	-226.2511291503907	735.9147338867189	-713.0426635742189	-194.0404357910157	736.6290283203126	-720.3663330078126	-255.612777709961	657.2629394531251	-727.2099609375001	-267.1274719238282	541.9647827148439	-731.6806030273439	-272.4144592285157	531.5161132812501	-855.8312988281252	-229.3461456298829	411.2694091796876	-752.6627807617189	-303.4158630371094	344.5592346191407	-704.4472045898439	-261.4648437500001	335.3087463378907	-720.8133544921876	-253.7574920654297	283.3485412597657	-744.4626464843751	-326.6825256347657	132.0719299316407	-726.1629028320314	-302.2988281250001	137.14697265625	-807.519470214844	-383.1689453125001	101.3749618530274	-775.8361816406252	-174.8843078613282	61.88480377197267	-786.830749511719	-171.7463989257813	56.46893692016603	-749.6623535156251	-213.7986907958985	41.27068710327149	-700.0346679687501	261.7816772460938	1536.410400390625	-914.1423950195315	-269.1213684082032	1582.533813476563	-1066.839721679688	-111.8170318603516	1533.120971679688	-1172.409790039063	-79.63995361328126	1551.118286132813	-1137.559692382813	-41.91699600219727	1528.676147460938	-1181.383178710938	17.35630035400391	1527.857666015625	-1174.835693359375	5.469378948211671	1451.044799804688	-1151.112182617188	272.6545715332032	1541.197143554688	-1048.280883789063	nan	nan	nan	nan	nan	nan	nan	nan	nan	nan	nan	nan	nan	nan	nan	nan	nan	nan	nan	nan	nan	nan	nan	nan	
1515	7.57	-182.1492919921875	1805.240112304688	-921.6609497070315	-319.4761657714844	1758.605102539063	-985.476013183594	-344.6884155273438	1739.408569335938	-821.5412597656252	-361.3029785156251	1566.821533203125	-908.8659667968752	-352.2893066406251	1262.23681640625	-897.9366455078127	-220.4250030517579	1536.250366210938	-915.8179321289065	253.1546783447266	1501.559204101563	-992.0244140625002	280.9463500976563	1568.054931640625	-946.1692504882815	-262.8240356445313	1567.627563476563	-748.0563354492189	-111.7881088256836	1541.344970703125	-646.0285034179689	-80.76234436035158	1556.349975585938	-684.0898437500001	-42.13936614990235	1542.523681640625	-639.7138061523439	20.22933387756348	1547.113891601563	-648.6843872070314	19.71902656555176	1463.5927734375	-657.1250610351564	263.3460388183594	1561.03515625	-795.4808349609377	-184.5786437988282	1070.73486328125	-1017.272827148438	-157.8327178955078	1056.34326171875	-801.678161621094	-339.9717407226563	1117.428466796875	-888.644958496094	-346.9919433593751	1084.331420898438	-914.9039306640627	-338.0230102539063	1086.862426757813	-858.070983886719	-291.3976135253907	836.238708496094	-1082.995483398438	-260.8097839355469	757.0844726562501	-1086.524169921875	-212.6562042236329	757.6923217773439	-1083.544677734375	-289.6372375488282	705.6668701171876	-1072.644775390625	-277.9031066894532	544.5942382812501	-1062.470703125	-262.9093933105469	535.7412719726564	-940.9074707031252	-255.9746551513672	366.3201904296876	-997.892272949219	-286.4109191894532	322.3679199218751	-1069.339233398438	-254.3695068359376	319.3182067871094	-1034.28564453125	-270.2617797851563	241.2646484375001	-1006.837524414063	-325.9694824218751	125.226058959961	-1055.0224609375	-305.4634399414063	130.7593688964844	-971.1873168945315	-387.8691406250001	99.29566192626956	-1007.709716796875	-180.7115020751953	58.98171997070314	-985.9965820312502	-179.6396179199219	59.6798439025879	-1032.93896484375	-217.0636138916016	47.0412826538086	-1078.443481445313	-264.9091186523438	791.963806152344	-713.4982299804689	-226.5673980712891	736.0192871093751	-712.3671264648439	-194.3426361083985	736.3784790039064	-719.6380004882814	-255.7810668945313	657.2834472656251	-726.5581054687501	-267.5931091308594	541.8310546875001	-730.9750366210939	-272.6830749511719	531.5844116210939	-855.248229980469	-229.5549011230469	411.0472717285157	-752.2300415039064	-303.5278015136719	344.4917907714844	-703.9967651367189	-261.8097229003907	335.1684265136719	-720.2608642578126	-253.8399047851563	283.4694824218751	-744.1661987304689	-326.7178039550782	131.756088256836	-725.8169555664064	-302.3212280273438	137.2207336425782	-807.2653808593752	-383.1293334960938	101.3805618286133	-775.6889648437502	-174.5760955810547	61.8496551513672	-786.871520996094	-171.9038543701172	55.34326553344728	-751.9721679687501	-213.8883056640626	40.92394256591798	-699.9456176757814	263.5408630371094	1535.317138671875	-912.4478759765627	-269.2924499511719	1582.501586914063	-1065.857299804688	-111.6834335327149	1533.620727539063	-1171.307495117188	-79.56029510498048	1551.404052734375	-1136.4208984375	-41.84070587158204	1528.975341796875	-1180.190673828125	17.59583473205567	1527.698974609375	-1173.635986328125	5.614913940429688	1451.166870117188	-1150.407836914063	272.4955749511719	1541.479614257813	-1047.210815429688	nan	nan	nan	nan	nan	nan	nan	nan	nan	nan	nan	nan	nan	nan	nan	nan	nan	nan	nan	nan	nan	nan	nan	nan	
1516	7.575	-182.4007873535157	1805.4501953125	-920.5684204101565	-319.7282104492188	1758.57275390625	-984.395690917969	-345.2037048339844	1739.320068359375	-820.3950805664065	-361.4996032714844	1566.697509765625	-907.945739746094	-352.3777465820313	1262.2001953125	-896.9785156250002	-220.6453094482422	1536.279296875	-914.7185668945315	252.8168945312501	1501.779907226563	-990.748718261719	281.0256958007813	1568.079467773438	-945.1228637695315	-263.1661376953126	1567.61572265625	-747.1118774414064	-111.9396438598633	1541.118774414063	-644.7159423828126	-81.2844924926758	1556.14013671875	-682.8609008789064	-42.45142364501954	1542.669189453125	-638.8350219726564	19.83528709411621	1547.110473632813	-647.5377807617189	19.31361389160157	1463.881958007813	-655.7031860351564	263.1050720214844	1561.111083984375	-794.138610839844	-182.30810546875	1071.35107421875	-1017.703979492188	-157.6582946777344	1056.146118164063	-800.8636474609377	-339.8162231445313	1117.407592773438	-887.4904785156252	-346.9373474121094	1084.292358398438	-913.8577270507815	-338.0251464843751	1087.0625	-856.956481933594	-291.5526428222657	836.4387817382815	-1082.292114257813	-261.0297851562501	757.2340698242189	-1086.12353515625	-212.7121276855469	757.2993164062501	-1082.963745117188	-289.7959594726563	705.8175659179689	-1072.11181640625	-277.4870300292969	544.3590698242189	-1062.28466796875	-262.5927734375001	534.9675292968751	-940.3499145507815	-255.9864196777344	366.3513793945313	-997.9168701171877	-285.9718017578126	322.9883117675782	-1069.305541992188	-254.440658569336	319.6079101562501	-1034.479248046875	-270.2246093750001	241.2328491210938	-1007.166748046875	-326.0732727050782	125.291244506836	-1055.174926757813	-305.4359436035157	130.7288208007813	-971.320251464844	-387.9437255859376	99.29218292236331	-1007.817932128906	-180.7075653076172	59.00506591796876	-986.013854980469	-179.5840148925782	59.79698562622072	-1032.985473632813	-216.9124298095704	47.46051025390626	-1078.444702148438	-264.8464660644532	791.9434204101565	-712.7833251953126	-226.3729248046876	735.7850341796876	-711.5004882812501	-194.5339355468751	736.3355102539064	-718.2899169921876	-255.8360137939454	657.1019287109376	-725.8920898437501	-267.6618957519532	541.8826904296876	-730.4262695312501	-273.0547180175782	531.5961303710939	-854.6922607421877	-229.7787170410157	411.034881591797	-751.9033813476564	-303.6499328613282	344.3075256347657	-703.5026245117189	-261.9514160156251	335.1678466796876	-719.9816894531251	-253.9265136718751	283.4585266113282	-743.8463745117189	-326.6653442382813	131.6333465576172	-725.6430664062501	-302.3834228515626	137.2485504150391	-807.080261230469	-383.0906066894532	101.3087844848633	-775.5328369140627	-174.3459930419922	61.87398529052736	-786.6757812500002	-172.0708312988282	55.22697067260744	-751.8789672851564	-213.8279113769532	40.79330825805665	-699.7955932617189	264.7780151367188	1534.42041015625	-910.7073364257815	-269.4963989257813	1582.611694335938	-1064.573852539063	-111.8948974609375	1533.9638671875	-1169.9951171875	-79.66947174072267	1551.55419921875	-1135.136962890625	-42.07029342651368	1529.379028320313	-1178.919555664063	17.65805244445801	1528.064819335938	-1172.504150390625	5.471168041229249	1451.47509765625	-1149.147705078125	272.2341003417969	1541.634765625	-1045.847778320313	nan	nan	nan	nan	nan	nan	nan	nan	nan	nan	nan	nan	nan	nan	nan	nan	nan	nan	nan	nan	nan	nan	nan	nan	
